<svg width="118" height="34" viewBox="0 0 118 34" fill="none" xmlns="http://www.w3.org/2000/svg">
<path d="M117.038 30.079C117.038 31.8909 115.54 33.3586 113.687 33.3586H4.00963C2.15733 33.3586 0.653809 31.8909 0.653809 30.079V3.92546C0.653809 2.11441 2.15733 0.641602 4.00963 0.641602H113.686C115.54 0.641602 117.038 2.11441 117.038 3.92546L117.038 30.079Z" fill="black"/>
<path d="M113.333 0.681064C115.352 0.681064 116.994 2.28225 116.994 4.25V29.75C116.994 31.7178 115.352 33.3189 113.333 33.3189H4.35897C2.34077 33.3189 0.698525 31.7178 0.698525 29.75V4.25C0.698525 2.28225 2.34077 0.681064 4.35897 0.681064H113.333ZM113.333 1.79688e-06H4.35897C1.96263 1.79688e-06 0 1.91356 0 4.25V29.75C0 32.0864 1.96263 34 4.35897 34H113.333C115.73 34 117.692 32.0864 117.692 29.75V4.25C117.692 1.91356 115.73 1.79688e-06 113.333 1.79688e-06Z" fill="#A6A6A6"/>
<path d="M26.2654 16.8164C26.2401 14.0768 28.566 12.744 28.6724 12.682C27.3551 10.8094 25.3134 10.5536 24.5959 10.5332C22.8811 10.3572 21.2177 11.5336 20.3441 11.5336C19.4532 11.5336 18.108 10.5502 16.6582 10.5791C14.7926 10.6071 13.0472 11.6603 12.09 13.2957C10.1145 16.6302 11.5878 21.5305 13.4805 24.2258C14.4273 25.5459 15.5336 27.0198 16.9816 26.9679C18.3983 26.911 18.9275 26.0873 20.6371 26.0873C22.331 26.0873 22.8279 26.9679 24.3047 26.9348C25.8251 26.911 26.7823 25.6088 27.696 24.2768C28.7901 22.7638 29.2295 21.2738 29.2469 21.1973C29.2112 21.1854 26.2941 20.0999 26.2654 16.8164Z" fill="white"/>
<path d="M23.4756 8.76007C24.2376 7.83102 24.7589 6.56707 24.6142 5.28442C23.5114 5.33202 22.1322 6.02817 21.338 6.93682C20.6353 7.73752 20.0076 9.04992 20.1698 10.2841C21.4086 10.3742 22.6806 9.67467 23.4756 8.76007Z" fill="white"/>
<path d="M46.7673 26.7785H44.7874L43.7029 23.4558H39.9333L38.9002 26.7785H36.9727L40.7074 15.4667H43.0142L46.7673 26.7785ZM43.376 22.0618L42.3952 19.1081C42.2915 18.8063 42.0971 18.0957 41.8102 16.9771H41.7754C41.6612 17.4582 41.4772 18.1688 41.2244 19.1081L40.2611 22.0618H43.376Z" fill="white"/>
<path d="M56.3717 22.5999C56.3717 23.9871 55.9872 25.0836 55.2183 25.8886C54.5296 26.6051 53.6744 26.963 52.6535 26.963C51.5515 26.963 50.7599 26.5771 50.2778 25.8053H50.243V30.102H48.3843V21.3071C48.3843 20.435 48.3608 19.5399 48.3154 18.6219H49.95L50.0538 19.9148H50.0887C50.7085 18.9407 51.6492 18.4545 52.9115 18.4545C53.8984 18.4545 54.7222 18.8344 55.3813 19.5952C56.0421 20.3568 56.3717 21.3581 56.3717 22.5999ZM54.4781 22.6662C54.4781 21.8723 54.2951 21.2178 53.9272 20.7027C53.5253 20.1655 52.9856 19.8969 52.3091 19.8969C51.8506 19.8969 51.4338 20.0465 51.0616 20.3415C50.6885 20.639 50.4444 21.0274 50.3301 21.5085C50.2726 21.7329 50.2438 21.9165 50.2438 22.061V23.421C50.2438 24.0143 50.4304 24.515 50.8035 24.9238C51.1767 25.3327 51.6614 25.5367 52.2577 25.5367C52.9577 25.5367 53.5026 25.2732 53.8923 24.7479C54.2829 24.2217 54.4781 23.5281 54.4781 22.6662Z" fill="white"/>
<path d="M65.9939 22.5999C65.9939 23.9871 65.6094 25.0836 64.8396 25.8886C64.1518 26.6051 63.2965 26.963 62.2757 26.963C61.1737 26.963 60.3821 26.5771 59.9009 25.8053H59.866V30.102H58.0074V21.3071C58.0074 20.435 57.9838 19.5399 57.9385 18.6219H59.5731L59.6768 19.9148H59.7117C60.3307 18.9407 61.2714 18.4545 62.5346 18.4545C63.5206 18.4545 64.3444 18.8344 65.0052 19.5952C65.6635 20.3568 65.9939 21.3581 65.9939 22.5999ZM64.1003 22.6662C64.1003 21.8723 63.9164 21.2178 63.5485 20.7027C63.1466 20.1655 62.6087 19.8969 61.9313 19.8969C61.4719 19.8969 61.056 20.0465 60.6829 20.3415C60.3098 20.639 60.0665 21.0274 59.9523 21.5085C59.8957 21.7329 59.866 21.9165 59.866 22.061V23.421C59.866 24.0143 60.0526 24.515 60.424 24.9238C60.7971 25.3318 61.2818 25.5367 61.8799 25.5367C62.5799 25.5367 63.1248 25.2732 63.5145 24.7479C63.905 24.2217 64.1003 23.5281 64.1003 22.6662Z" fill="white"/>
<path d="M76.7517 23.6064C76.7517 24.5686 76.4091 25.3514 75.7213 25.9558C74.9654 26.6162 73.9132 26.946 72.561 26.946C71.3126 26.946 70.3118 26.7114 69.5542 26.2414L69.9849 24.7309C70.8009 25.212 71.6962 25.4534 72.6717 25.4534C73.3718 25.4534 73.9167 25.2987 74.3081 24.991C74.6978 24.6833 74.8922 24.2702 74.8922 23.7551C74.8922 23.2961 74.7318 22.9094 74.4101 22.5957C74.0901 22.2821 73.5557 21.9905 72.8095 21.7211C70.7782 20.9824 69.7634 19.9004 69.7634 18.4775C69.7634 17.5476 70.1191 16.7851 70.8314 16.1918C71.541 15.5977 72.4878 15.301 73.6717 15.301C74.7274 15.301 75.6045 15.4804 76.3045 15.8382L75.8398 17.3155C75.186 16.9687 74.4467 16.7953 73.6194 16.7953C72.9655 16.7953 72.4547 16.9526 72.0885 17.2654C71.779 17.545 71.6238 17.8859 71.6238 18.2896C71.6238 18.7367 71.8008 19.1065 72.1565 19.3972C72.466 19.6658 73.0283 19.9565 73.8443 20.2701C74.8425 20.662 75.5757 21.1201 76.0473 21.6454C76.5172 22.169 76.7517 22.8244 76.7517 23.6064Z" fill="white"/>
<path d="M82.897 19.9819H80.8483V23.9421C80.8483 24.9494 81.2092 25.4526 81.9328 25.4526C82.265 25.4526 82.5404 25.4245 82.7584 25.3684L82.8098 26.7446C82.4437 26.878 81.9616 26.9452 81.3644 26.9452C80.6303 26.9452 80.0567 26.7267 79.6426 26.2907C79.2302 25.8538 79.0228 25.1211 79.0228 24.0917V19.9803H77.8022V18.6202H79.0228V17.1268L80.8483 16.5896V18.6202H82.897V19.9819Z" fill="white"/>
<path d="M92.1408 22.6331C92.1408 23.8868 91.7729 24.9162 91.0388 25.7211C90.269 26.5499 89.2473 26.963 87.9736 26.963C86.7461 26.963 85.7688 26.566 85.04 25.7721C84.3112 24.9782 83.9468 23.9761 83.9468 22.7682C83.9468 21.5043 84.3216 20.469 85.074 19.664C85.8246 18.8582 86.8376 18.4553 88.1113 18.4553C89.3388 18.4553 90.3266 18.8523 91.072 19.647C91.7851 20.418 92.1408 21.4133 92.1408 22.6331ZM90.2124 22.6917C90.2124 21.9395 90.0476 21.2943 89.7137 20.7563C89.324 20.1052 88.7669 19.7805 88.0451 19.7805C87.298 19.7805 86.7304 20.106 86.3407 20.7563C86.0068 21.2952 85.8421 21.9505 85.8421 22.7257C85.8421 23.478 86.0068 24.1231 86.3407 24.6603C86.7426 25.3114 87.3041 25.6361 88.0285 25.6361C88.7382 25.6361 89.2952 25.3046 89.6971 24.6433C90.0397 24.0951 90.2124 23.4431 90.2124 22.6917Z" fill="white"/>
<path d="M98.1824 20.2157C97.9984 20.1825 97.8023 20.1655 97.5965 20.1655C96.9427 20.1655 96.437 20.4061 96.0813 20.888C95.7718 21.313 95.6167 21.8502 95.6167 22.4988V26.7785H93.7588L93.7763 21.1906C93.7763 20.2505 93.7527 19.3946 93.7065 18.6228H95.3255L95.3935 20.1834H95.4449C95.6411 19.647 95.9506 19.2152 96.3742 18.8914C96.7883 18.5998 97.2356 18.4545 97.7177 18.4545C97.8894 18.4545 98.0446 18.4664 98.1824 18.4876V20.2157Z" fill="white"/>
<path d="M106.495 22.3144C106.495 22.6391 106.473 22.9128 106.427 23.1363H100.851C100.873 23.9421 101.142 24.5584 101.66 24.9834C102.13 25.3633 102.737 25.5537 103.484 25.5537C104.309 25.5537 105.062 25.4254 105.74 25.1678L106.031 26.4258C105.239 26.7624 104.305 26.9299 103.226 26.9299C101.929 26.9299 100.911 26.5576 100.17 25.8138C99.4306 25.0701 99.0601 24.0713 99.0601 22.8184C99.0601 21.5885 99.4044 20.5642 100.094 19.7474C100.816 18.8753 101.791 18.4392 103.019 18.4392C104.225 18.4392 105.137 18.8753 105.757 19.7474C106.248 20.4401 106.495 21.2969 106.495 22.3144ZM104.722 21.8443C104.735 21.3071 104.613 20.843 104.361 20.4512C104.04 19.9471 103.545 19.6955 102.88 19.6955C102.273 19.6955 101.778 19.9412 101.401 20.4342C101.091 20.826 100.907 21.2961 100.851 21.8435H104.722V21.8443Z" fill="white"/>
<path d="M42.7617 8.50752C42.7617 9.50797 42.4539 10.2611 41.8393 10.7668C41.27 11.2335 40.461 11.4672 39.4131 11.4672C38.8935 11.4672 38.4489 11.4451 38.0767 11.4009V5.93457C38.5623 5.85807 39.0853 5.81897 39.6503 5.81897C40.6485 5.81897 41.4008 6.03062 41.9082 6.45392C42.4766 6.93247 42.7617 7.61672 42.7617 8.50752ZM41.7984 8.53217C41.7984 7.88362 41.6223 7.38637 41.27 7.03957C40.9178 6.69362 40.4035 6.52022 39.7261 6.52022C39.4384 6.52022 39.1934 6.53892 38.9903 6.57802V10.7337C39.1028 10.7507 39.3085 10.7583 39.6075 10.7583C40.3067 10.7583 40.8464 10.5688 41.2265 10.1897C41.6066 9.81057 41.7984 9.25807 41.7984 8.53217Z" fill="white"/>
<path d="M47.8693 9.38124C47.8693 9.99749 47.6889 10.5024 47.3279 10.8985C46.9496 11.3056 46.4483 11.5088 45.8223 11.5088C45.2191 11.5088 44.7387 11.3141 44.3804 10.9231C44.023 10.533 43.8442 10.0408 43.8442 9.44755C43.8442 8.82705 44.0282 8.3179 44.3978 7.92265C44.7675 7.5274 45.2644 7.32935 45.8903 7.32935C46.4936 7.32935 46.9783 7.524 47.3454 7.91415C47.6941 8.29325 47.8693 8.78285 47.8693 9.38124ZM46.9217 9.41015C46.9217 9.0404 46.8397 8.72335 46.6767 8.459C46.4849 8.1394 46.212 7.9796 45.8572 7.9796C45.4902 7.9796 45.2112 8.1394 45.0194 8.459C44.8555 8.72335 44.7744 9.0455 44.7744 9.4263C44.7744 9.79605 44.8564 10.1131 45.0194 10.3774C45.2173 10.697 45.4928 10.8568 45.8485 10.8568C46.1972 10.8568 46.471 10.6945 46.668 10.3689C46.8371 10.0995 46.9217 9.7799 46.9217 9.41015Z" fill="white"/>
<path d="M54.7185 7.41113L53.4326 11.418H52.5957L52.063 9.67808C51.9279 9.24373 51.8181 8.81193 51.7326 8.38353H51.7161C51.6367 8.82383 51.5269 9.25478 51.3856 9.67808L50.8198 11.418H49.9733L48.7642 7.41113H49.7031L50.1677 9.31598C50.2802 9.76648 50.3726 10.1957 50.4467 10.602H50.4633C50.5313 10.2671 50.6437 9.84043 50.8024 9.32448L51.3856 7.41198H52.1302L52.689 9.28368C52.8241 9.74013 52.9339 10.1796 53.0185 10.6029H53.0438C53.1057 10.1906 53.199 9.75118 53.3228 9.28368L53.8214 7.41198H54.7185V7.41113Z" fill="white"/>
<path d="M59.4548 11.418H58.5411V9.12295C58.5411 8.41575 58.2657 8.06215 57.7129 8.06215C57.4418 8.06215 57.223 8.15905 57.053 8.3537C56.8847 8.54835 56.7993 8.77785 56.7993 9.0405V11.4171H55.8857V8.556C55.8857 8.2041 55.8743 7.82245 55.8525 7.40935H56.6555L56.6982 8.0358H56.7235C56.8298 7.84115 56.9885 7.6805 57.1968 7.55215C57.4444 7.40255 57.7217 7.3269 58.025 7.3269C58.4086 7.3269 58.7277 7.4476 58.9814 7.68985C59.297 7.9865 59.4548 8.42935 59.4548 9.01756V11.418Z" fill="white"/>
<path d="M61.9743 11.418H61.0615V5.57251H61.9743V11.418Z" fill="white"/>
<path d="M67.3532 9.38124C67.3532 9.99749 67.1727 10.5024 66.8118 10.8985C66.4335 11.3056 65.9313 11.5088 65.3062 11.5088C64.7021 11.5088 64.2217 11.3141 63.8643 10.9231C63.5068 10.533 63.3281 10.0408 63.3281 9.44755C63.3281 8.82705 63.5121 8.3179 63.8817 7.92265C64.2514 7.5274 64.7483 7.32935 65.3734 7.32935C65.9775 7.32935 66.4614 7.524 66.8293 7.91415C67.178 8.29325 67.3532 8.78285 67.3532 9.38124ZM66.4047 9.41015C66.4047 9.0404 66.3227 8.72335 66.1597 8.459C65.9688 8.1394 65.695 7.9796 65.3411 7.9796C64.9732 7.9796 64.6942 8.1394 64.5033 8.459C64.3394 8.72335 64.2583 9.0455 64.2583 9.4263C64.2583 9.79605 64.3403 10.1131 64.5033 10.3774C64.7012 10.697 64.9767 10.8568 65.3324 10.8568C65.6811 10.8568 65.954 10.6945 66.151 10.3689C66.321 10.0995 66.4047 9.7799 66.4047 9.41015Z" fill="white"/>
<path d="M71.7752 11.4178H70.9549L70.8868 10.9563H70.8616C70.5809 11.3243 70.1807 11.5088 69.6611 11.5088C69.2732 11.5088 68.9593 11.3872 68.7231 11.1458C68.5086 10.9265 68.4014 10.6537 68.4014 10.3298C68.4014 9.84025 68.6106 9.46709 69.0317 9.20869C69.4519 8.95029 70.043 8.82364 70.804 8.82959V8.7548C70.804 8.22695 70.5198 7.96345 69.9505 7.96345C69.5452 7.96345 69.1877 8.0629 68.8791 8.2601L68.6934 7.6753C69.0753 7.44495 69.5469 7.32935 70.1031 7.32935C71.1772 7.32935 71.7159 7.88185 71.7159 8.98685V10.4624C71.7159 10.8628 71.736 11.1815 71.7752 11.4178ZM70.8267 10.0408V9.4229C69.8189 9.4059 69.315 9.67535 69.315 10.2304C69.315 10.4395 69.3725 10.5959 69.4902 10.7004C69.6079 10.805 69.7579 10.8568 69.9366 10.8568C70.1371 10.8568 70.3245 10.7948 70.4954 10.6715C70.6672 10.5474 70.7726 10.3902 70.8119 10.1972C70.8215 10.1539 70.8267 10.1012 70.8267 10.0408Z" fill="white"/>
<path d="M76.9665 11.418H76.1558L76.113 10.7745H76.0878C75.8288 11.2641 75.3877 11.5089 74.7679 11.5089C74.2727 11.5089 73.8603 11.3194 73.5334 10.9403C73.2065 10.5612 73.0435 10.069 73.0435 9.46466C73.0435 8.81611 73.2204 8.29081 73.5761 7.88961C73.9205 7.51561 74.3424 7.32861 74.8446 7.32861C75.3964 7.32861 75.7826 7.50966 76.0023 7.87261H76.0198V5.57251H76.9343V10.3385C76.9343 10.7286 76.9447 11.0882 76.9665 11.418ZM76.0198 9.72816V9.06006C76.0198 8.94446 76.011 8.85096 75.9945 8.77956C75.943 8.56536 75.8323 8.38516 75.6641 8.23981C75.4941 8.09446 75.2892 8.02136 75.0529 8.02136C74.7121 8.02136 74.4453 8.15311 74.2491 8.41746C74.0547 8.68181 73.9562 9.01926 73.9562 9.43151C73.9562 9.82761 74.0495 10.1489 74.2369 10.3963C74.4348 10.6598 74.7016 10.7915 75.0355 10.7915C75.3354 10.7915 75.5751 10.6819 75.7573 10.4617C75.9335 10.2586 76.0198 10.0138 76.0198 9.72816Z" fill="white"/>
<path d="M84.7804 9.38124C84.7804 9.99749 84.6 10.5024 84.2391 10.8985C83.8607 11.3056 83.3603 11.5088 82.7335 11.5088C82.1311 11.5088 81.6507 11.3141 81.2915 10.9231C80.9341 10.533 80.7554 10.0408 80.7554 9.44755C80.7554 8.82705 80.9393 8.3179 81.309 7.92265C81.6786 7.5274 82.1755 7.32935 82.8023 7.32935C83.4048 7.32935 83.8903 7.524 84.2565 7.91415C84.6052 8.29325 84.7804 8.78285 84.7804 9.38124ZM83.8337 9.41015C83.8337 9.0404 83.7517 8.72335 83.5887 8.459C83.396 8.1394 83.124 7.9796 82.7683 7.9796C82.4022 7.9796 82.1232 8.1394 81.9305 8.459C81.7667 8.72335 81.6856 9.0455 81.6856 9.4263C81.6856 9.79605 81.7675 10.1131 81.9305 10.3774C82.1284 10.697 82.4039 10.8568 82.7596 10.8568C83.1083 10.8568 83.383 10.6945 83.58 10.3689C83.7482 10.0995 83.8337 9.7799 83.8337 9.41015Z" fill="white"/>
<path d="M89.6932 11.418H88.7804V9.12295C88.7804 8.41575 88.5049 8.06215 87.9513 8.06215C87.6802 8.06215 87.4614 8.15905 87.2923 8.3537C87.1231 8.54835 87.0386 8.77785 87.0386 9.0405V11.4171H86.1241V8.556C86.1241 8.2041 86.1136 7.82245 86.0918 7.40935H86.8938L86.9366 8.0358H86.9618C87.0691 7.84115 87.2277 7.6805 87.4352 7.55215C87.6837 7.40255 87.9601 7.3269 88.2643 7.3269C88.647 7.3269 88.9661 7.4476 89.2198 7.68985C89.5362 7.9865 89.6932 8.42935 89.6932 9.01756V11.418Z" fill="white"/>
<path d="M95.8418 8.07824H94.8357V10.0247C94.8357 10.5194 95.0145 10.7668 95.3684 10.7668C95.5323 10.7668 95.6683 10.7532 95.7755 10.7251L95.7991 11.4009C95.6186 11.4672 95.3815 11.5003 95.0894 11.5003C94.7285 11.5003 94.4478 11.3932 94.2447 11.179C94.0407 10.9648 93.9395 10.6044 93.9395 10.0987V8.07824H93.3389V7.41099H93.9395V6.67659L94.8349 6.41309V7.41014H95.8409V8.07824H95.8418Z" fill="white"/>
<path d="M100.679 11.418H99.764V9.13996C99.764 8.42171 99.4885 8.06216 98.9367 8.06216C98.513 8.06216 98.2235 8.27041 98.0649 8.68691C98.0378 8.77446 98.0221 8.88156 98.0221 9.00736V11.4171H97.1094V5.57251H98.0221V7.98736H98.0396C98.3273 7.54791 98.7396 7.32861 99.2741 7.32861C99.6524 7.32861 99.9654 7.44931 100.214 7.69156C100.523 7.99331 100.679 8.44211 100.679 9.03541V11.418Z" fill="white"/>
<path d="M105.668 9.22493C105.668 9.38473 105.656 9.51903 105.634 9.62868H102.894C102.906 10.0248 103.037 10.3265 103.29 10.5356C103.522 10.7226 103.821 10.8161 104.188 10.8161C104.593 10.8161 104.963 10.7532 105.296 10.6266L105.439 11.2454C105.049 11.4103 104.59 11.4927 104.059 11.4927C103.423 11.4927 102.922 11.31 102.559 10.9445C102.195 10.579 102.014 10.0885 102.014 9.47313C102.014 8.86878 102.182 8.36558 102.522 7.96438C102.875 7.53598 103.354 7.32178 103.958 7.32178C104.549 7.32178 104.998 7.53598 105.302 7.96438C105.547 8.30438 105.668 8.72513 105.668 9.22493ZM104.796 8.99458C104.803 8.73023 104.743 8.50243 104.619 8.31033C104.46 8.06298 104.219 7.93888 103.892 7.93888C103.594 7.93888 103.351 8.05958 103.165 8.30183C103.013 8.49478 102.923 8.72513 102.894 8.99458H104.796Z" fill="white"/>
</svg>
