<svg width="119" height="34" viewBox="0 0 119 34" fill="none" xmlns="http://www.w3.org/2000/svg">
<path d="M113.985 34H5.1606C2.76755 34 0.807617 32.0864 0.807617 29.75V4.25C0.807617 1.91357 2.76755 4.15896e-06 5.1606 4.15896e-06H113.985C116.378 4.15896e-06 118.338 1.91357 118.338 4.25V29.75C118.338 32.0864 116.378 34 113.985 34Z" fill="black"/>
<path d="M113.985 0.681066C116.001 0.681066 117.641 2.28225 117.641 4.25V29.75C117.641 31.7178 116.001 33.3189 113.985 33.3189H5.1606C3.14517 33.3189 1.50518 31.7178 1.50518 29.75V4.25C1.50518 2.28225 3.14517 0.681066 5.1606 0.681066H113.985ZM113.985 4.15896e-06H5.1606C2.76755 4.15896e-06 0.807617 1.91357 0.807617 4.25V29.75C0.807617 32.0864 2.76755 34 5.1606 34H113.985C116.378 34 118.338 32.0864 118.338 29.75V4.25C118.338 1.91357 116.378 4.15896e-06 113.985 4.15896e-06Z" fill="#A6A6A6"/>
<path d="M42.0892 8.70726C42.0892 9.41701 41.8716 9.98545 41.4428 10.4094C40.9499 10.912 40.3078 11.1648 39.521 11.1648C38.769 11.1648 38.1269 10.9077 37.6002 10.4009C37.0724 9.88664 36.8091 9.25551 36.8091 8.50008C36.8091 7.74464 37.0724 7.11352 37.6002 6.60352C38.1269 6.09245 38.769 5.83533 39.521 5.83533C39.8953 5.83533 40.2523 5.91076 40.5929 6.05101C40.9324 6.19233 41.2089 6.38358 41.4091 6.61945L40.9542 7.06783C40.6049 6.66514 40.1293 6.46645 39.521 6.46645C38.9725 6.46645 38.497 6.65345 38.0932 7.03064C37.6938 7.40889 37.4936 7.8987 37.4936 8.50008C37.4936 9.10145 37.6938 9.59551 38.0932 9.97376C38.497 10.3467 38.9725 10.538 39.521 10.538C40.1032 10.538 40.5929 10.3467 40.9792 9.96951C41.2339 9.71983 41.3786 9.37558 41.4167 8.9357H39.521V8.32158H42.0501C42.0805 8.45439 42.0892 8.58295 42.0892 8.70726Z" fill="white" stroke="white" stroke-width="0.16" stroke-miterlimit="10"/>
<path d="M46.1014 6.57796H43.7258V8.19296H45.8674V8.80708H43.7258V10.4221H46.1014V11.0479H43.0532V5.95215H46.1014V6.57796Z" fill="white" stroke="white" stroke-width="0.16" stroke-miterlimit="10"/>
<path d="M48.9329 11.0479H48.2604V6.57796H46.8032V5.95215H50.3912V6.57796H48.9329V11.0479Z" fill="white" stroke="white" stroke-width="0.16" stroke-miterlimit="10"/>
<path d="M52.9878 11.0479V5.95215H53.6592V11.0479H52.9878Z" fill="white" stroke="white" stroke-width="0.16" stroke-miterlimit="10"/>
<path d="M56.6355 11.0479H55.9685V6.57796H54.5059V5.95215H58.0981V6.57796H56.6355V11.0479Z" fill="white" stroke="white" stroke-width="0.16" stroke-miterlimit="10"/>
<path d="M64.891 10.3924C64.3763 10.9077 63.7386 11.1648 62.9779 11.1648C62.2129 11.1648 61.5751 10.9077 61.0604 10.3924C60.5468 9.87814 60.291 9.24701 60.291 8.50008C60.291 7.75314 60.5468 7.12201 61.0604 6.60776C61.5751 6.09245 62.2129 5.83533 62.9779 5.83533C63.7342 5.83533 64.3719 6.09245 64.8867 6.61201C65.4047 7.13051 65.6604 7.75739 65.6604 8.50008C65.6604 9.24701 65.4047 9.87814 64.891 10.3924ZM61.5577 9.96526C61.9452 10.3467 62.4164 10.538 62.9779 10.538C63.5351 10.538 64.0106 10.3467 64.3937 9.96526C64.78 9.58383 64.9759 9.09401 64.9759 8.50008C64.9759 7.90614 64.78 7.41633 64.3937 7.03489C64.0106 6.65345 63.5351 6.4622 62.9779 6.4622C62.4164 6.4622 61.9452 6.65345 61.5577 7.03489C61.1714 7.41633 60.9755 7.90614 60.9755 8.50008C60.9755 9.09401 61.1714 9.58383 61.5577 9.96526Z" fill="white" stroke="white" stroke-width="0.16" stroke-miterlimit="10"/>
<path d="M66.604 11.0479V5.95215H67.4202L69.958 9.91527H69.9874L69.958 8.93565V5.95215H70.6294V11.0479H69.9286L67.2711 6.88927H67.2417L67.2711 7.87315V11.0479H66.604Z" fill="white" stroke="white" stroke-width="0.16" stroke-miterlimit="10"/>
<path d="M60.1259 18.4897C58.0811 18.4897 56.4106 20.0091 56.4106 22.1054C56.4106 24.1847 58.0811 25.72 60.1259 25.72C62.1751 25.72 63.8455 24.1847 63.8455 22.1054C63.8455 20.0091 62.1751 18.4897 60.1259 18.4897ZM60.1259 24.2963C59.0039 24.2963 58.0387 23.3921 58.0387 22.1054C58.0387 20.8017 59.0039 19.9134 60.1259 19.9134C61.2479 19.9134 62.2175 20.8017 62.2175 22.1054C62.2175 23.3921 61.2479 24.2963 60.1259 24.2963ZM52.0196 18.4897C49.9704 18.4897 48.3043 20.0091 48.3043 22.1054C48.3043 24.1847 49.9704 25.72 52.0196 25.72C54.0676 25.72 55.7348 24.1847 55.7348 22.1054C55.7348 20.0091 54.0676 18.4897 52.0196 18.4897ZM52.0196 24.2963C50.8965 24.2963 49.928 23.3921 49.928 22.1054C49.928 20.8017 50.8965 19.9134 52.0196 19.9134C53.1416 19.9134 54.1068 20.8017 54.1068 22.1054C54.1068 23.3921 53.1416 24.2963 52.0196 24.2963ZM42.3734 19.5979V21.1343H46.1311C46.0212 21.9928 45.7273 22.6239 45.2768 23.0638C44.7283 23.595 43.8741 24.1847 42.3734 24.1847C40.0608 24.1847 38.25 22.3625 38.25 20.1047C38.25 17.8469 40.0608 16.0247 42.3734 16.0247C43.6238 16.0247 44.5335 16.5018 45.205 17.1201L46.3139 16.0374C45.3748 15.1619 44.1254 14.4894 42.3734 14.4894C39.2022 14.4894 36.5371 17.0086 36.5371 20.1047C36.5371 23.2008 39.2022 25.72 42.3734 25.72C44.0874 25.72 45.3747 25.1718 46.3868 24.1433C47.4239 23.1307 47.7471 21.7069 47.7471 20.5573C47.7471 20.2003 47.7167 19.872 47.6622 19.5979H42.3734ZM81.8179 20.7889C81.5121 19.9804 80.5686 18.4897 78.6468 18.4897C76.7423 18.4897 75.1568 19.9549 75.1568 22.1054C75.1568 24.1305 76.726 25.72 78.8296 25.72C80.5305 25.72 81.5121 24.7074 81.9158 24.1178L80.6535 23.2964C80.2323 23.8978 79.6588 24.2963 78.8296 24.2963C78.0058 24.2963 77.4149 23.9276 77.0362 23.2008L81.9888 21.2001L81.8179 20.7889ZM76.7685 21.9928C76.726 20.5988 77.8774 19.8848 78.7023 19.8848C79.3487 19.8848 79.8972 20.2003 80.08 20.6519L76.7685 21.9928ZM72.743 25.5001H74.371V14.8751H72.743V25.5001ZM70.0768 19.2951H70.0224C69.6568 18.8722 68.9592 18.4897 68.0755 18.4897C66.2212 18.4897 64.5257 20.0792 64.5257 22.1171C64.5257 24.1433 66.2212 25.72 68.0755 25.72C68.9592 25.72 69.6568 25.3343 70.0224 24.8987H70.0768V25.4172C70.0768 26.7995 69.3205 27.5422 68.1006 27.5422C67.1059 27.5422 66.4889 26.8409 66.2342 26.2513L64.8184 26.8282C65.2265 27.7866 66.3071 28.9659 68.1006 28.9659C70.0094 28.9659 71.62 27.8694 71.62 25.2015V18.7096H70.0768V19.2951ZM68.2148 24.2963C67.0929 24.2963 66.1537 23.3793 66.1537 22.1171C66.1537 20.8431 67.0929 19.9134 68.2148 19.9134C69.3205 19.9134 70.1922 20.8431 70.1922 22.1171C70.1922 23.3793 69.3205 24.2963 68.2148 24.2963ZM89.44 14.8751H85.5462V25.5001H87.1699V21.4743H89.44C91.2432 21.4743 93.0116 20.2003 93.0116 18.1741C93.0116 16.149 91.2388 14.8751 89.44 14.8751ZM89.4824 19.9963H87.1699V16.353H89.4824C90.6947 16.353 91.3869 17.3358 91.3869 18.1741C91.3869 18.9965 90.6947 19.9963 89.4824 19.9963ZM99.5193 18.4695C98.3462 18.4695 97.1263 18.9753 96.6246 20.0962L98.0654 20.6859C98.3756 20.0962 98.9458 19.9049 99.5487 19.9049C100.391 19.9049 101.245 20.399 101.258 21.2713V21.3829C100.964 21.2171 100.335 20.9717 99.5617 20.9717C98.0099 20.9717 96.4287 21.8058 96.4287 23.3623C96.4287 24.7861 97.6998 25.703 99.1286 25.703C100.221 25.703 100.824 25.2217 101.203 24.6618H101.258V25.4831H102.826V21.4073C102.826 19.5235 101.386 18.4695 99.5193 18.4695ZM99.3234 24.292C98.7924 24.292 98.0524 24.0349 98.0524 23.3921C98.0524 22.5697 98.9752 22.2541 99.774 22.2541C100.489 22.2541 100.824 22.4082 101.258 22.6111C101.131 23.595 100.264 24.292 99.3234 24.292ZM108.54 18.7022L106.673 23.3081H106.618L104.688 18.7022H102.937L105.837 25.1388L104.182 28.7205H105.879L110.346 18.7022H108.54ZM93.904 25.5001H95.532V14.8751H93.904V25.5001Z" fill="white"/>
<path d="M9.89251 6.40794C9.63677 6.66931 9.48877 7.07625 9.48877 7.60325V26.401C9.48877 26.928 9.63677 27.3349 9.89251 27.5963L9.95563 27.6537L20.7445 17.1243V16.8757L9.95563 6.34631L9.89251 6.40794Z" fill="url(#paint0_linear_485_7769)"/>
<path d="M24.3364 20.6359L20.7441 17.1243V16.8757L24.3408 13.3641L24.4213 13.4098L28.6807 15.776C29.8963 16.4475 29.8963 17.5525 28.6807 18.2282L24.4213 20.5902L24.3364 20.6359Z" fill="url(#paint1_linear_485_7769)"/>
<path d="M24.4213 20.5902L20.7441 17L9.89209 27.5964C10.2958 28.0107 10.9542 28.0607 11.7029 27.6463L24.4213 20.5902Z" fill="url(#paint2_linear_485_7769)"/>
<path d="M24.4213 13.4098L11.7029 6.35375C10.9542 5.94363 10.2958 5.99356 9.89209 6.40794L20.7441 17L24.4213 13.4098Z" fill="url(#paint3_linear_485_7769)"/>
<defs>
<linearGradient id="paint0_linear_485_7769" x1="19.7866" y1="26.5968" x2="5.52562" y2="11.9902" gradientUnits="userSpaceOnUse">
<stop stop-color="#00A0FF"/>
<stop offset="0.0066" stop-color="#00A1FF"/>
<stop offset="0.2601" stop-color="#00BEFF"/>
<stop offset="0.5122" stop-color="#00D2FF"/>
<stop offset="0.7604" stop-color="#00DFFF"/>
<stop offset="1" stop-color="#00E3FF"/>
</linearGradient>
<linearGradient id="paint1_linear_485_7769" x1="30.2636" y1="16.9988" x2="9.19786" y2="16.9988" gradientUnits="userSpaceOnUse">
<stop stop-color="#FFE000"/>
<stop offset="0.4087" stop-color="#FFBD00"/>
<stop offset="0.7754" stop-color="#FFA500"/>
<stop offset="1" stop-color="#FF9C00"/>
</linearGradient>
<linearGradient id="paint2_linear_485_7769" x1="22.4217" y1="15.0484" x2="3.0827" y2="-4.75926" gradientUnits="userSpaceOnUse">
<stop stop-color="#FF3A44"/>
<stop offset="1" stop-color="#C31162"/>
</linearGradient>
<linearGradient id="paint3_linear_485_7769" x1="7.16042" y1="33.8502" x2="15.7962" y2="25.0053" gradientUnits="userSpaceOnUse">
<stop stop-color="#32A071"/>
<stop offset="0.0685" stop-color="#2DA771"/>
<stop offset="0.4762" stop-color="#15CF74"/>
<stop offset="0.8009" stop-color="#06E775"/>
<stop offset="1" stop-color="#00F076"/>
</linearGradient>
</defs>
</svg>
