<svg width="56" height="57" viewBox="0 0 56 57" version="1.1" xmlns="http://www.w3.org/2000/svg" xmlns:xlink="http://www.w3.org/1999/xlink">
<title>mobile</title>
<desc>Created using Figma</desc>
<g id="Canvas" transform="translate(-5972 4210)">
<g id="mobile">
<g id="mobile">
<g id="Group">
<g id="Vector">
<use xlink:href="#path0_fill" transform="translate(5975.12 -4206.88)" fill="#FFFFFF"/>
</g>
<g id="Vector">
<use xlink:href="#path1_fill" transform="translate(5975.12 -4165.58)" fill="#FFFFFF"/>
</g>
</g>
<g id="Vector">
<use xlink:href="#path2_fill" transform="translate(5975.12 -4194.74)" fill="#FFFFFF"/>
</g>
<g id="Vector">
<use xlink:href="#path3_fill" transform="translate(5978.23 -4191.62)" fill="#F7D145"/>
</g>
<g id="Group">
<g id="Vector">
<use xlink:href="#path4_fill" transform="translate(6009.74 -4187.67)" fill="#333333"/>
</g>
<g id="Vector">
<use xlink:href="#path5_fill" transform="translate(6014.49 -4192.46)" fill="#333333"/>
</g>
<g id="Vector">
<use xlink:href="#path6_fill" transform="translate(6019.21 -4197.19)" fill="#333333"/>
</g>
<g id="Vector">
<use xlink:href="#path7_fill" transform="translate(5972 -4210)" fill="#333333"/>
</g>
<g id="Vector">
<use xlink:href="#path8_fill" transform="translate(5984.17 -4203.76)" fill="#333333"/>
</g>
<g id="Vector">
<use xlink:href="#path9_fill" transform="translate(5978.72 -4162.98)" fill="#333333"/>
</g>
<g id="Vector">
<use xlink:href="#path10_fill" transform="translate(5992.73 -4162.98)" fill="#333333"/>
</g>
</g>
</g>
</g>
</g>
<defs>
<path id="path0_fill" d="M 27.7544 1.56517C 27.7544 0.703861 27.0627 -1.00558e-07 26.1956 -1.00558e-07L 1.55879 -1.00558e-07C 0.700991 -1.00558e-07 -5.87827e-08 0.694549 -5.87827e-08 1.56517L -5.87827e-08 9.01152L 27.7544 9.01152L 27.7544 1.56517Z"/>
<path id="path1_fill" d="M -5.87827e-08 7.13145C -5.87827e-08 7.99276 0.691717 8.69663 1.55879 8.69663L 26.2048 8.69663C 27.0626 8.69663 27.7636 8.00207 27.7636 7.13145L 27.7636 9.09398e-07L -5.87827e-08 9.09398e-07L -5.87827e-08 7.13145Z"/>
<path id="path2_fill" d="M 27.7544 0L 0 0L 0 26.0158L 27.7544 26.0158L 27.7544 0Z"/>
<path id="path3_fill" d="M 1.13211e-07 0.000142985L 1.13211e-07 2.55628L 6.53964 2.55628C 7.39743 2.55628 8.09842 3.25083 8.09842 4.12145C 8.09842 4.98276 7.40671 5.68662 6.53964 5.68662L 1.13211e-07 5.68662L 1.13211e-07 8.8078L 1.8724 8.8078C 2.7302 8.8078 3.43119 9.50235 3.43119 10.373C 3.43119 11.2436 2.73947 11.9381 1.8724 11.9381L 1.13211e-07 11.9381L 1.13211e-07 19.7735L 21.5284 19.7735L 21.5284 8.91909e-07L 1.13211e-07 8.91909e-07L 1.13211e-07 0.000142985Z"/>
<path id="path4_fill" d="M 2.67162 0.458484C 2.0628 -0.152828 1.08514 -0.152828 0.467051 0.458484C -0.141768 1.0698 -0.141768 2.05145 0.467051 2.67207C 2.17351 4.3947 2.17351 7.20097 0.467051 8.91442C -0.141768 9.52574 -0.169449 10.5445 0.467051 11.128C 1.41716 11.9893 2.36714 11.4336 2.67162 11.128C 5.5863 8.18263 5.5863 3.40373 2.67162 0.458484Z"/>
<path id="path5_fill" d="M 2.67862 0.458485C 2.0698 -0.152828 1.09215 -0.152828 0.474052 0.458485C -0.134767 1.0698 -0.134767 2.05145 0.474052 2.67208C 4.8184 7.03421 4.8184 14.1287 0.474052 18.4817C -0.134767 19.093 -0.180853 20.1302 0.474052 20.6953C 1.48866 21.5566 2.37414 21.0008 2.67862 20.6953C 5.372 17.9908 6.84775 14.3973 6.84775 10.5723C 6.84775 6.74725 5.372 3.1629 2.67862 0.458485Z"/>
<path id="path6_fill" d="M 2.67862 0.458484C 2.0698 -0.152828 1.09215 -0.152828 0.474056 0.458484C -0.134763 1.0698 -0.134763 2.05145 0.474056 2.67207C 7.41962 9.64608 7.41962 20.9822 0.474056 27.9562C -0.134763 28.5675 -0.180849 29.5955 0.474056 30.1698C 1.45185 31.0218 2.37414 30.4754 2.67862 30.1698C 10.8233 21.9732 10.8233 8.63649 2.67862 0.458484Z"/>
<path id="path7_fill" d="M 29.3132 0L 4.67637 0C 2.0937 0 4.25222e-12 2.10242 4.25222e-12 4.68635L 4.25222e-12 51.55C 4.25222e-12 54.1432 2.09384 56.2456 4.67651 56.2456L 29.3225 56.2456C 31.8959 56.2456 33.9897 54.1432 33.9897 51.5593L 33.9897 4.68635C 33.9804 2.10242 31.8866 0 29.3132 0ZM 30.872 51.55C 30.872 52.4113 30.1803 53.1151 29.3132 53.1151L 4.67637 53.1151C 3.81857 53.1151 3.11758 52.4206 3.11758 51.55L 3.11758 44.4185L 30.872 44.4185L 30.872 51.55ZM 30.872 41.2788L 3.11758 41.2788L 3.11758 15.263L 30.872 15.263L 30.872 41.2788ZM 30.872 12.1327L 3.11758 12.1327L 3.11758 4.68635C 3.11758 3.82504 3.80929 3.12117 4.67637 3.12117L 29.3223 3.12117C 30.1801 3.12117 30.8811 3.81572 30.8811 4.68635L 30.8811 12.1327L 30.872 12.1327Z"/>
<path id="path8_fill" d="M 8.09843 -2.01117e-07L 1.55879 -2.01117e-07C 0.700991 -2.01117e-07 -5.13804e-07 0.69455 -5.13804e-07 1.56517C -5.13804e-07 2.43579 0.691717 3.13034 1.55879 3.13034L 8.09843 3.13034C 8.95622 3.13034 9.65721 2.43579 9.65721 1.56517C 9.65721 0.69455 8.95622 -2.01117e-07 8.09843 -2.01117e-07Z"/>
<path id="path9_fill" d="M 1.55879 3.13034L 4.98998 3.13034C 5.84778 3.13034 6.54877 2.43579 6.54877 1.56517C 6.54877 0.70386 5.85705 -2.09861e-07 4.98998 -2.09861e-07L 1.55879 -2.09861e-07C 0.700991 -2.09861e-07 -2.69965e-07 0.694547 -2.69965e-07 1.56517C -2.69965e-07 2.41717 0.691717 3.13034 1.55879 3.13034Z"/>
<path id="path10_fill" d="M 1.55879 3.13034L 4.98998 3.13034C 5.84777 3.13034 6.54877 2.43579 6.54877 1.56517C 6.54877 0.70386 5.85705 -2.09861e-07 4.98998 -2.09861e-07L 1.55879 -2.09861e-07C 0.700992 -2.09861e-07 1.91588e-07 0.694547 1.91588e-07 1.56517C 1.91588e-07 2.41717 0.69186 3.13034 1.55879 3.13034Z"/>
</defs>
</svg>
